Jump_normalized_Motion_pl13
version=1
nRows=16
nColumns=43
inDegrees=yes
endheader
time		pelvis_tilt		pelvis_list		pelvis_rotation		pelvis_tx		pelvis_ty		pelvis_tz		hip_flexion_r		hip_adduction_r		hip_rotation_r		knee_angle_r		ankle_angle_r		subtalar_angle_r		mtp_angle_r		hip_flexion_l		hip_adduction_l		hip_rotation_l		knee_angle_l		ankle_angle_l		subtalar_angle_l		mtp_angle_l		lumbar_extension		lumbar_bending		lumbar_rotation		neck_flexion		neck_lateral_bending		neck_rotation		arm_flex_r		arm_add_r		arm_rot_r		elbow_flex_r		pro_sup_r		wrist_flex_r		wrist_dev_r		hand_finger_flex_r		arm_flex_l		arm_add_l		arm_rot_l		elbow_flex_l		pro_sup_l		wrist_flex_l		wrist_dev_l		hand_finger_flex_l		
1.075833		1.491965		-21.771611		88.066229		0.057902		1.786506		1.727398		74.735517		-3.215622		-0.536146		-140.879635		24.219191		2.777705		18.956784		76.274470		-7.708414		10.461407		-141.638677		15.127098		21.810497		33.419789		-38.043251		-0.033770		5.441583		36.435299		1.520892		-4.235017		104.199628		-24.114358		11.450572		77.857146		106.626342		0.266706		-10.983446		-11.595881		106.969612		-14.821281		23.175997		57.375356		107.530826		-20.443600		-4.033537		2.563992		
1.078990		1.214205		-21.935404		87.920306		0.057757		1.788116		1.721670		74.129526		-3.334533		-0.113127		-140.466607		23.727219		3.067035		21.160846		75.812598		-7.558872		10.092006		-141.131238		13.864562		21.551362		36.530645		-37.583921		-0.236455		5.302671		35.971980		1.538986		-4.148098		104.267649		-23.554628		11.098489		77.668628		107.723361		0.402993		-11.133894		-10.721965		107.121651		-14.727389		23.364312		57.224924		106.469263		-20.364843		-4.230546		1.958307		
1.082146		1.142170		-22.060043		87.868450		0.057596		1.789712		1.715850		73.428021		-3.383820		0.054735		-140.041635		23.452229		3.268757		21.210854		75.408860		-7.469604		10.030287		-140.707963		12.813808		21.694580		36.531630		-37.149651		-0.248956		5.317474		35.407380		1.527447		-4.089125		104.411659		-23.218628		11.153408		77.451689		107.664905		0.491338		-11.054473		-10.667417		107.120371		-14.419013		23.107427		57.045999		106.263826		-20.311094		-4.176814		1.933010		
1.085303		1.041645		-22.148582		87.808214		0.057458		1.791394		1.709916		72.701858		-3.435373		0.261917		-139.611618		23.157084		3.517835		21.297326		74.997962		-7.366720		9.942594		-140.267984		11.602451		21.807091		36.573652		-36.754500		-0.292575		5.311629		34.847789		1.522186		-4.026198		104.504490		-22.887279		11.172332		77.232016		107.638278		0.609339		-11.027544		-10.590062		107.096708		-14.120788		22.853372		56.863949		105.998821		-20.212889		-4.170600		1.884971		
1.088460		0.929909		-22.210888		87.741924		0.057347		1.793076		1.703892		71.954418		-3.489361		0.486113		-139.189707		22.842275		3.787395		21.418765		74.596152		-7.262090		9.831790		-139.812607		10.303291		21.866402		36.663822		-36.382937		-0.355841		5.300600		34.282870		1.515892		-3.960736		104.543130		-22.568931		11.178878		77.002057		107.609926		0.725703		-11.064075		-10.508296		107.062590		-13.845978		22.629853		56.681764		105.728113		-20.072199		-4.188486		1.816278		
1.091616		0.812053		-22.256301		87.678167		0.057273		1.794775		1.697789		71.195068		-3.536916		0.709814		-138.761185		22.504203		4.054332		21.570205		74.208355		-7.161691		9.700035		-139.345028		8.903836		21.853786		36.787623		-36.029170		-0.428281		5.285446		33.707315		1.518986		-3.896930		104.552014		-22.270708		11.188574		76.748779		107.565165		0.817853		-11.162087		-10.430877		107.014054		-13.596653		22.432351		56.504330		105.489620		-19.909934		-4.204318		1.727542		
1.094773		0.702035		-22.290633		87.611468		0.057210		1.796428		1.691554		70.417997		-3.600745		0.924030		-138.321648		22.142291		4.298890		21.742630		73.833690		-7.084501		9.557454		-138.880667		7.446109		21.757492		36.926134		-35.670818		-0.496801		5.280067		33.122221		1.528865		-3.838595		104.509160		-22.006673		11.231938		76.494979		107.512710		0.883313		-11.307571		-10.354966		106.927758		-13.382807		22.276337		56.336090		105.308496		-19.739019		-4.200672		1.625024		
1.097929		0.601962		-22.311564		87.553380		0.057174		1.798024		1.685256		69.633446		-3.650913		1.113646		-137.879177		21.745496		4.514735		21.937711		73.489168		-7.016987		9.400091		-138.407787		5.843751		21.550484		37.045404		-35.320928		-0.558655		5.287954		32.534232		1.545710		-3.788142		104.447863		-21.766329		11.299403		76.212829		107.465092		0.903647		-11.484785		-10.274929		106.822965		-13.179800		22.144129		56.169440		105.196778		-19.573141		-4.155135		1.504739		
1.101086		0.515023		-22.320617		87.499172		0.057158		1.799633		1.678919		68.839355		-3.685408		1.278364		-137.411458		21.321144		4.709325		22.184152		73.166725		-6.952139		9.228281		-137.912561		4.118513		21.200075		37.156116		-34.992969		-0.622614		5.296813		31.951556		1.562869		-3.743702		104.382808		-21.572226		11.394786		75.917602		107.443863		0.883742		-11.695874		-10.166240		106.706419		-12.993277		22.038191		56.029267		105.150858		-19.389090		-4.081407		1.354387		
1.104242		0.315337		-22.179510		87.400509		0.056918		1.801434		1.672431		67.917812		-3.842854		1.599838		-136.939987		20.708570		4.954003		23.788810		72.654265		-6.830440		8.722143		-137.384535		2.233158		19.832248		38.259555		-34.823110		-0.759485		5.220276		31.417717		1.577869		-3.688189		104.392892		-21.308447		11.594704		75.411534		107.566503		0.431279		-12.230036		-9.394162		106.553517		-12.806615		21.713319		55.894419		105.435690		-18.594746		-3.879133		0.358201		
1.107399		0.228426		-22.194857		87.341041		0.056949		1.802850		1.665823		67.128404		-3.885200		1.762041		-136.458911		20.165592		5.082552		24.504051		72.373471		-6.795350		8.547012		-136.875293		0.317491		19.414036		38.567499		-34.454664		-0.834697		5.256125		30.844914		1.591934		-3.655261		104.203721		-21.253143		11.773525		75.232487		107.628440		0.237564		-12.384632		-8.981882		106.313451		-12.689106		21.672090		55.857766		105.574289		-18.222589		-3.752091		-0.133372		
1.110556		0.237378		-22.225875		87.328602		0.057086		1.804131		1.659382		66.397751		-3.840649		1.801208		-135.987894		19.603501		5.146124		24.631705		72.212416		-6.799758		8.541466		-136.359582		-1.844260		19.187782		38.207026		-34.074174		-0.839699		5.326671		30.248778		1.678851		-3.670537		104.078442		-21.129135		11.928532		74.924239		107.695307		0.178112		-12.330907		-8.813426		106.138494		-12.527876		21.714236		55.668498		105.586692		-18.139171		-3.579342		-0.286640		
1.113712		0.149295		-22.132645		87.299686		0.057062		1.805721		1.652731		65.547572		-3.876723		1.952144		-135.487781		18.828653		5.139881		26.181553		71.881173		-6.722954		8.273612		-135.794884		-3.911826		18.250643		36.244367		-33.858328		-0.904177		5.332264		29.769928		1.665652		-3.626213		103.963050		-20.969076		12.091375		74.584543		108.010442		-0.524544		-12.510169		-7.349930		105.917196		-12.422054		21.652857		55.612011		105.820143		-17.465743		-3.332517		-1.464422		
1.116869		0.102701		-22.035615		87.309522		0.057066		1.807196		1.646101		64.705675		-3.896957		2.054982		-134.999713		18.062536		5.115951		27.712555		71.611091		-6.650175		8.085781		-135.221222		-6.061854		17.353560		34.090265		-33.643700		-0.934183		5.338182		29.310075		1.761976		-3.617635		103.860187		-20.820501		12.287656		74.196241		108.267085		-1.221320		-12.611857		-5.846569		105.719919		-12.313014		21.636320		55.478765		106.040390		-16.782138		-3.096987		-2.671143		
1.120025		0.149796		-21.958877		87.384833		0.057091		1.808544		1.639390		63.856565		-3.883902		2.024311		-134.512430		17.432587		5.083197		27.745650		71.430141		-6.616740		8.087610		-134.617692		-8.426487		16.771292		33.211852		-33.394361		-0.889225		5.368028		28.774787		1.893715		-3.640500		103.707464		-20.777024		12.472837		73.881184		108.383077		-1.202022		-12.549155		-5.651027		105.518241		-12.209974		21.826323		55.290115		106.060476		-16.723259		-2.977411		-2.808909		
1.123182		0.112493		-21.732250		87.485507		0.056934		1.810332		1.632405		62.819401		-3.982221		2.035271		-133.988099		16.781146		4.926407		28.072727		71.051156		-6.480650		7.858586		-133.931643		-10.548619		15.462995		31.101216		-33.352932		-0.882501		5.322444		28.349546		1.972579		-3.620683		103.528576		-20.745022		12.569721		73.642053		108.868737		-1.163388		-12.641685		-5.205717		105.309886		-12.203163		22.093217		55.237283		106.129189		-16.582312		-2.865662		-3.147879		
